<svg id="Слой_1" data-name="Слой 1" xmlns="http://www.w3.org/2000/svg" viewBox="0 0 385.2 514.53"><defs><style>.cls-1,.cls-3{fill:none;}.cls-1,.cls-2,.cls-3,.cls-5{stroke:#ccc;stroke-miterlimit:10;}.cls-1,.cls-2{stroke-width:5px;}.cls-2{fill:#fff;}.cls-3{stroke-width:7px;}.cls-4{fill:#ccc;}.cls-5{fill:#3c3c3b;}</style></defs><title>KII_logo_pirates-1</title><path class="cls-1" d="M358.82,284.72,378,269.29s-7.83,21-29.07,33.8" transform="translate(-7.13 -19.43)"/><path class="cls-1" d="M25.94,280.35l-1.82-1.8L12.6,267.17s5.07,21.83,33,38.21C56.86,312,82.65,325.09,115,323.77c0,0,31.3-.49,40,24.21,0,0,.29-6.22.29-11.2,0,0,12.68,14.89,6.34,26.76,0,0,10.17-.71,9.65-15.56,1.47,1.45.23.23.34.41,0,0,8.37,10.94,9.62,22.59a12.75,12.75,0,0,0,3.84-14.35C189,362.44,196,387.11,196,387.11s.69-5,0-3.36l0,3.36c2.66-17.33,6.57-23.31,10.65-29.58-2.47,8.58,3.13,13.45,3.13,13.45,2.19-11,10.8-22.47,10.8-22.47s.18-.13-.37.32c-.8.8.37-.32.37-.32.39,5.64,1.81,11.41,7.67,14.1-2.17-15.78,8.93-25.83,8.93-25.83,0,5,.29,11.2.29,11.2,7.33-22.65,40-24.21,40-24.21,35.12,1.44,62.76-14.83,71.94-21" transform="translate(-7.13 -19.43)"/><path class="cls-2" d="M349.44,302.76" transform="translate(-7.13 -19.43)"/><path class="cls-3" d="M382.74,409C404.47,383.2,361,367.87,361,367.87c18.42-36.42-21-42.58-21-42.58-30.07-.59-33.77,40.84-33.77,40.84L197.57,407.4,93.25,367.93s-3.7-41.44-33.77-40.84c0,0-39.46,6.16-21,42.58,0,0-43.45,15.34-21.73,41.13,23.09,27.42,58.77-5.7,58.77-5.7l64.1,24.31-56,21.24s-35.68-33.12-58.77-5.7c-21.73,25.8,21.73,41.13,21.73,41.13-18.42,36.42,21,42.58,21,42.58,30.07.59,33.77-40.84,33.77-40.84l96.19-36.42,100.59,38.22s3.65,41.44,33.76,40.84c0,0,39.46-6.16,21-42.58,0,0,43.45-15.34,21.73-41.13-23-27.43-58.09,5.78-58.09,5.78l-61-23.13,69-26.19S359.67,436.42,382.74,409Z" transform="translate(-7.13 -19.43)"/><path class="cls-4" d="M155.36,458.08s40.47-37.16,91.61-.86C247,457.22,201.16,402.15,155.36,458.08Z" transform="translate(-7.13 -19.43)"/><path class="cls-4" d="M247,403s-45.8,48-91.61-.86c0,0,37.16,30.25,91.61.86" transform="translate(-7.13 -19.43)"/><path class="cls-4" d="M253.3,413.72s-53.58,17.62,3.46,31C256.76,444.72,171.2,432.54,253.3,413.72Z" transform="translate(-7.13 -19.43)"/><path class="cls-4" d="M140.84,444.72s85.56-12.19,3.46-31c0,0,53.58,17.62-3.46,31" transform="translate(-7.13 -19.43)"/><path class="cls-5" d="M44.4,369.82" transform="translate(-7.13 -19.43)"/><path class="cls-3" d="M15.24,271.1c4.62,4.89,5.22,5.54,12.13,10.22a82,82,0,0,0,39,14c-16.22-16.19-22.58-33.53-29-52.06.35.64,4.54,13.57,1.14,3.52-3.62-10.22-5.81-16.58-8.42-28.72C23,181,34.73,131.67,69.73,118.87,68.83,124,67.93,129,67,134c41.32.28,84.61,23.45,95.46,51.65C162.05,105.57,52.34,98.3,18.37,26.27c1.52.65,3,1.3,4.57,1.86,21.42,9.86,43.12,20,65,29,14.59-18,57.32-31.14,107.86-31.27,50.54.13,93.28,13.24,107.86,31.27,21.87-9,43.56-19.17,65-29,1.52-.56,3-1.21,4.57-1.86-34,72-143.68,79.29-144.13,159.42,10.85-28.2,54.14-51.37,95.46-51.65q-1.35-7.5-2.69-15.17c27.45,10,40.36,38.63,42.36,69,1.23,24.81-5.78,43.73-15.1,65.88-3.25,8.14,2.91-7.29,3.31-8-7.26,18.77-11.94,29-27.21,49.61a82,82,0,0,0,39-14c9.25-6.26,5.14-2.71,9.25-6.26" transform="translate(-7.13 -19.43)"/><path class="cls-4" d="M124.76,264.43c-17.16,3-46.29.92-52.82-26.22,30.21,27.25,72.21,11.9,76.08-22.45,6.27,9.77,5.37,26.64.65,34,28.72-33.5,7.68-77.34-29.62-89.88,14.52,5.23,25.91,22.88,24.43,39.07C139,170.63,83,163,75.9,169.85a25.59,25.59,0,0,1,12.22-13.71c-21.46-.6-28.14,22.8-26.9,34.62,12.46-10.88,24.34-10.72,40.6-7.37-32,20.82-7.26,59.21,28.63,46.27-18.32,25.78-54.47,5.23-65.27-8.23-4.7,9.59-3.38,21.33-.75,26.56C50,235.23,42.87,216.55,41.88,203.19c.71,16.24,2.55,30.51,10.15,43.74C62,261.69,99.2,286.57,124.76,264.43Z" transform="translate(-7.13 -19.43)"/><path class="cls-4" d="M350.32,196.09c-.54,19.7-7.87,39.17-23.06,51.91,2.64-5.23,4-17-.75-26.56-10.81,13.45-47,34-65.27,8.23,35.91,12.94,60.65-25.45,28.63-46.27,16.26-3.34,28.14-3.52,40.6,7.37,1.24-11.82-5.45-35.22-26.9-34.62a25.59,25.59,0,0,1,12.22,13.71c-7.1-6.85-63,.77-67.59,29.13-1.49-16.19,9.91-33.84,24.43-39.07-37.3,12.51-58.34,56.38-29.62,89.88-4.7-7.37-5.62-24.25.65-34,3.88,34.36,45.88,49.72,76.08,22.45-6.52,27.16-35.65,29.21-52.82,26.22,25.45,21.94,62.31-2.47,72.55-17.24C348.2,231.63,352.6,213.61,350.32,196.09Z" transform="translate(-7.13 -19.43)"/><path class="cls-4" d="M199.54,197.52c-.85-2.27-2.47-6.27-3.71-9.67-1.23,3.41-2.86,7.41-3.71,9.67C170.12,256,145.33,291,87.07,297c44.55,15.45,73.41-38.44,107.38,20l.37.73.06.11c.31.6.63,1.18,1,1.76.32-.58.63-1.16,1-1.76l.06-.11.37-.73c34-58.44,62.83-4.56,107.38-20C246.33,291,221.58,256,199.54,197.52Zm-2.69,113q-.48,1.2-1,2.4-.54-1.2-1-2.4c-5.74-15.54-26.71-38.16-29.22-40.39,10.31-17.38,25.48-49.44,30.24-72,4.76,22.57,19.93,54.62,30.24,72-2.54,2.21-23.52,24.83-29.26,40.37Z" transform="translate(-7.13 -19.43)"/></svg>